<svg xmlns="http://www.w3.org/2000/svg" viewBox="0 0 64 64" role="img" aria-label="GustavPHP">
  <defs>
    <linearGradient id="g" x1="0" y1="0" x2="1" y2="1">
      <stop offset="0%" stop-color="#0ea5e9"/>
      <stop offset="100%" stop-color="#2563eb"/>
    </linearGradient>
  </defs>
  <rect width="64" height="64" rx="12" fill="url(#g)"/>
  <path d="M40.6 20.7c-2.2-1.7-5.1-2.7-8.3-2.7-7 0-12.7 5.6-12.7 12.5S25.3 43 32.3 43c3.2 0 6.1-1 8.4-2.8v-6.4h-8.2v-5.1h14.3v13.9c-3.5 3.4-8.5 5.5-14.5 5.5-10.4 0-18.8-8-18.8-17.6 0-9.7 8.4-17.6 18.8-17.6 4.9 0 9.3 1.8 12.6 4.8l-4.3 3z" fill="#fff"/>
</svg>
